<svg width="28" height="28" fill="none" xmlns="http://www.w3.org/2000/svg"><path d="m23.931 6.694-5.25-5.25a.411.411 0 0 0-.306-.131H5.626A1.698 1.698 0 0 0 3.937 3v8.374a.438.438 0 1 0 .876 0V3.001a.814.814 0 0 1 .813-.813h12.312V7a.438.438 0 0 0 .437.438h4.813v17.56a.813.813 0 0 1-.814.814H5.626A.814.814 0 0 1 4.812 25V22.75a.437.437 0 1 0-.875 0v2.249a1.698 1.698 0 0 0 1.69 1.689h16.747a1.697 1.697 0 0 0 1.689-1.69V7a.411.411 0 0 0-.132-.306Zm-5.119-3.885 3.754 3.754h-3.753V2.809Z" fill="#222"/><path d="M11.078 15.496h-.77v3.124h.875c.46.03.914-.11 1.277-.394a1.506 1.506 0 0 0 .438-1.163c-.027-1.05-.648-1.567-1.82-1.567ZM6.623 15.479h-.787v1.829h.875a1.164 1.164 0 0 0 .875-.245.998.998 0 0 0 .289-.718.762.762 0 0 0-.298-.674 1.751 1.751 0 0 0-.954-.192Z" fill="#222"/><path d="M20.563 20.02v-5.915a1.409 1.409 0 0 0-1.418-1.418H3.605a1.408 1.408 0 0 0-1.417 1.418v5.915a1.409 1.409 0 0 0 1.417 1.418h15.54a1.41 1.41 0 0 0 1.418-1.418ZM8.137 17.622a2.38 2.38 0 0 1-1.488.386h-.814v1.338h-.77V14.78h1.567a2.284 2.284 0 0 1 1.513.402 1.488 1.488 0 0 1 .482 1.225 1.47 1.47 0 0 1-.49 1.216Zm4.873 1.103a2.748 2.748 0 0 1-1.96.621H9.538V14.78h1.566a2.686 2.686 0 0 1 1.881.604 2.116 2.116 0 0 1 .665 1.653 2.265 2.265 0 0 1-.639 1.689Zm4.664-3.229h-2.266v1.26h2.021v.744h-2.021v1.881h-.77V14.78h3.045l-.009.717Z" fill="#222"/></svg>