<svg fill="none" xmlns="http://www.w3.org/2000/svg" viewBox="0 0 377 37">
  <path d="M16 12h5v1h-5v-1ZM16 13h5v1h-5v-1ZM16 15h5v1h-5v-1ZM16 16h5v1h-5v-1ZM16 18h5v2h-5v-2ZM16 20h5v2h-5v-2ZM16 23h5v1h-5v-1ZM16 25h5v1h-5v-1ZM16 27h5v2h-5v-2ZM16 29h5v2h-5v-2ZM16 31h5v2h-5v-2ZM16 34h5v1h-5v-1ZM35 23h-4v1h4v-1ZM35 24h-4v1h4v-1ZM35 26h-4v1h4v-1ZM35 27h-4v2h4v-2ZM35 29h-4v2h4v-2ZM35 31h-4v2h4v-2ZM35 34h-4v1h4v-1ZM21 21h4v1h-4v-1ZM21 22h4v1h-4v-1ZM21 23h4v1h-4v-1ZM21 25h4v1h-4v-1ZM21 27h4v2h-4v-2ZM21 29h4v2h-4v-2ZM21 31h4v2h-4v-2ZM21 34h4v1h-4v-1ZM26 19h4-4ZM26 20h4v1h-4v-1ZM26 21h4v1h-4v-1ZM26 23h4v1h-4v-1ZM26 25h4v1h-4v-1ZM26 27h4v2h-4v-2ZM26 29h4v2h-4v-2ZM26 31h4v2h-4v-2ZM26 34h4v1h-4v-1ZM16 17h-4 4ZM16 18h-4 4ZM16 19h-4v1h4v-1ZM16 21h-4v1h4v-1ZM16 23h-4v1h4v-1ZM16 25h-4v1h4v-1ZM16 27h-4v2h4v-2ZM16 29h-4v2h4v-2ZM16 31h-4v2h4v-2ZM16 34h-4v1h4v-1ZM7 21h4v1H7v-1ZM7 22h4v1H7v-1ZM7 23h4v1H7v-1ZM7 25h4v1H7v-1ZM7 27h4v2H7v-2ZM7 29h4v2H7v-2ZM7 31h4v2H7v-2ZM7 34h4v1H7v-1ZM2 19h4-4ZM2 20h4v1H2v-1ZM2 21h4v1H2v-1ZM2 23h4v1H2v-1ZM2 25h4v1H2v-1ZM2 27h4v2H2v-2ZM2 29h4v2H2v-2ZM2 31h4v2H2v-2ZM2 34h4v1H2v-1ZM50 12h5v1h-5v-1ZM50 13h5v1h-5v-1ZM50 15h5v1h-5v-1ZM50 16h5v1h-5v-1ZM50 18h5v2h-5v-2ZM50 20h5v2h-5v-2ZM50 23h5v1h-5v-1ZM50 25h5v1h-5v-1ZM50 27h5v2h-5v-2ZM50 29h5v2h-5v-2ZM50 31h5v2h-5v-2ZM50 34h5v1h-5v-1ZM69 23h-4v1h4v-1ZM69 24h-4v1h4v-1ZM69 26h-4v1h4v-1ZM69 27h-4v2h4v-2ZM69 29h-4v2h4v-2ZM69 31h-4v2h4v-2ZM69 34h-4v1h4v-1ZM55 21h4v1h-4v-1ZM55 22h4v1h-4v-1ZM55 23h4v1h-4v-1ZM55 25h4v1h-4v-1ZM55 27h4v2h-4v-2ZM55 29h4v2h-4v-2ZM55 31h4v2h-4v-2ZM55 34h4v1h-4v-1ZM60 19h4-4ZM60 20h4v1h-4v-1ZM60 21h4v1h-4v-1ZM60 23h4v1h-4v-1ZM60 25h4v1h-4v-1ZM60 27h4v2h-4v-2ZM60 29h4v2h-4v-2ZM60 31h4v2h-4v-2ZM60 34h4v1h-4v-1ZM50 17h-4 4ZM50 18h-4 4ZM50 19h-4v1h4v-1ZM50 21h-4v1h4v-1ZM50 23h-4v1h4v-1ZM50 25h-4v1h4v-1ZM50 27h-4v2h4v-2ZM50 29h-4v2h4v-2ZM50 31h-4v2h4v-2ZM50 34h-4v1h4v-1ZM41 21h4v1h-4v-1ZM41 22h4v1h-4v-1ZM41 23h4v1h-4v-1ZM41 25h4v1h-4v-1ZM41 27h4v2h-4v-2ZM41 29h4v2h-4v-2ZM41 31h4v2h-4v-2ZM41 34h4v1h-4v-1ZM36 19h4-4ZM36 20h4v1h-4v-1ZM36 21h4v1h-4v-1ZM36 23h4v1h-4v-1ZM36 25h4v1h-4v-1ZM36 27h4v2h-4v-2ZM36 29h4v2h-4v-2ZM36 31h4v2h-4v-2ZM36 34h4v1h-4v-1ZM89 12h-5v1h5v-1ZM89 13h-5v1h5v-1ZM89 15h-5v1h5v-1ZM89 16h-5v1h5v-1ZM89 18h-5v2h5v-2ZM89 20h-5v2h5v-2ZM89 23h-5v1h5v-1ZM89 25h-5v1h5v-1ZM89 27h-5v2h5v-2ZM89 29h-5v2h5v-2ZM89 31h-5v2h5v-2ZM89 34h-5v1h5v-1ZM70 23h4v1h-4v-1ZM70 24h4v1h-4v-1ZM70 26h4v1h-4v-1ZM70 27h4v2h-4v-2ZM70 29h4v2h-4v-2ZM70 31h4v2h-4v-2ZM70 34h4v1h-4v-1ZM84 21h-4v1h4v-1ZM84 22h-4v1h4v-1ZM84 23h-4v1h4v-1ZM84 25h-4v1h4v-1ZM84 27h-4v2h4v-2ZM84 29h-4v2h4v-2ZM84 31h-4v2h4v-2ZM84 34h-4v1h4v-1ZM79 19h-4 4ZM79 20h-4v1h4v-1ZM79 21h-4v1h4v-1ZM79 23h-4v1h4v-1ZM79 25h-4v1h4v-1ZM79 27h-4v2h4v-2ZM79 29h-4v2h4v-2ZM79 31h-4v2h4v-2ZM79 34h-4v1h4v-1ZM89 17h4-4ZM89 18h4-4ZM89 19h4v1h-4v-1ZM89 21h4v1h-4v-1ZM89 23h4v1h-4v-1ZM89 25h4v1h-4v-1ZM89 27h4v2h-4v-2ZM89 29h4v2h-4v-2ZM89 31h4v2h-4v-2ZM89 34h4v1h-4v-1ZM98 21h-4v1h4v-1ZM98 22h-4v1h4v-1ZM98 23h-4v1h4v-1ZM98 25h-4v1h4v-1ZM98 27h-4v2h4v-2ZM98 29h-4v2h4v-2ZM98 31h-4v2h4v-2ZM98 34h-4v1h4v-1ZM103 19h-4 4ZM103 20h-4v1h4v-1ZM103 21h-4v1h4v-1ZM103 23h-4v1h4v-1ZM103 25h-4v1h4v-1ZM103 27h-4v2h4v-2ZM103 29h-4v2h4v-2ZM103 31h-4v2h4v-2ZM103 34h-4v1h4v-1ZM118 12h5v1h-5v-1ZM118 13h5v1h-5v-1ZM118 15h5v1h-5v-1ZM118 16h5v1h-5v-1ZM118 18h5v2h-5v-2ZM118 20h5v2h-5v-2ZM118 23h5v1h-5v-1ZM118 25h5v1h-5v-1ZM118 27h5v2h-5v-2ZM118 29h5v2h-5v-2ZM118 31h5v2h-5v-2ZM118 34h5v1h-5v-1ZM137 23h-4v1h4v-1ZM137 24h-4v1h4v-1ZM137 26h-4v1h4v-1ZM137 27h-4v2h4v-2ZM137 29h-4v2h4v-2ZM137 31h-4v2h4v-2ZM137 34h-4v1h4v-1ZM123 21h4v1h-4v-1ZM123 22h4v1h-4v-1ZM123 23h4v1h-4v-1ZM123 25h4v1h-4v-1ZM123 27h4v2h-4v-2ZM123 29h4v2h-4v-2ZM127 31h-4v2h4v-2ZM123 34h4v1h-4v-1ZM128 19h4-4ZM128 20h4v1h-4v-1ZM128 21h4v1h-4v-1ZM128 23h4v1h-4v-1ZM128 25h4v1h-4v-1ZM128 27h4v2h-4v-2ZM128 29h4v2h-4v-2ZM128 31h4v2h-4v-2ZM128 34h4v1h-4v-1ZM118 17h-4 4ZM118 18h-4 4ZM118 19h-4v1h4v-1ZM118 21h-4v1h4v-1ZM118 23h-4v1h4v-1ZM118 25h-4v1h4v-1ZM118 27h-4v2h4v-2ZM118 29h-4v2h4v-2ZM118 31h-4v2h4v-2ZM118 34h-4v1h4v-1ZM109 21h4v1h-4v-1ZM109 22h4v1h-4v-1ZM109 23h4v1h-4v-1ZM109 25h4v1h-4v-1ZM109 27h4v2h-4v-2ZM109 29h4v2h-4v-2ZM109 31h4v2h-4v-2ZM109 34h4v1h-4v-1ZM104 19h4-4ZM104 20h4v1h-4v-1ZM104 21h4v1h-4v-1ZM104 23h4v1h-4v-1ZM104 25h4v1h-4v-1ZM104 27h4v2h-4v-2ZM104 29h4v2h-4v-2ZM104 31h4v2h-4v-2ZM104 34h4v1h-4v-1ZM152 12h5v1h-5v-1ZM152 13h5v1h-5v-1ZM152 15h5v1h-5v-1ZM152 16h5v1h-5v-1ZM152 18h5v2h-5v-2ZM152 20h5v2h-5v-2ZM152 23h5v1h-5v-1ZM152 25h5v1h-5v-1ZM152 27h5v2h-5v-2ZM152 29h5v2h-5v-2ZM152 31h5v2h-5v-2ZM152 34h5v1h-5v-1ZM171 23h-4v1h4v-1ZM171 24h-4v1h4v-1ZM171 26h-4v1h4v-1ZM171 27h-4v2h4v-2ZM171 29h-4v2h4v-2ZM171 31h-4v2h4v-2ZM171 34h-4v1h4v-1ZM157 21h4v1h-4v-1ZM157 22h4v1h-4v-1ZM157 23h4v1h-4v-1ZM157 25h4v1h-4v-1ZM157 27h4v2h-4v-2ZM157 29h4v2h-4v-2ZM157 31h4v2h-4v-2ZM157 34h4v1h-4v-1ZM162 19h4-4ZM162 20h4v1h-4v-1ZM162 21h4v1h-4v-1ZM162 23h4v1h-4v-1ZM162 25h4v1h-4v-1ZM162 27h4v2h-4v-2ZM162 29h4v2h-4v-2ZM162 31h4v2h-4v-2ZM162 34h4v1h-4v-1ZM152 17h-4 4ZM152 18h-4 4ZM152 19h-4v1h4v-1ZM152 21h-4v1h4v-1ZM152 23h-4v1h4v-1ZM152 25h-4v1h4v-1ZM152 27h-4v2h4v-2ZM152 29h-4v2h4v-2ZM152 31h-4v2h4v-2ZM152 34h-4v1h4v-1ZM143 21h4v1h-4v-1ZM143 22h4v1h-4v-1ZM143 23h4v1h-4v-1ZM143 25h4v1h-4v-1ZM143 27h4v2h-4v-2ZM143 29h4v2h-4v-2ZM143 31h4v2h-4v-2ZM143 34h4v1h-4v-1ZM138 19h4-4ZM138 20h4v1h-4v-1ZM138 21h4v1h-4v-1ZM138 23h4v1h-4v-1ZM138 25h4v1h-4v-1ZM138 27h4v2h-4v-2ZM138 29h4v2h-4v-2ZM138 31h4v2h-4v-2ZM138 34h4v1h-4v-1ZM191 12h-5v1h5v-1ZM191 13h-5v1h5v-1ZM191 15h-5v1h5v-1ZM191 16h-5v1h5v-1ZM191 18h-5v2h5v-2ZM191 20h-5v2h5v-2ZM191 23h-5v1h5v-1ZM191 25h-5v1h5v-1ZM191 27h-5v2h5v-2ZM191 29h-5v2h5v-2ZM191 31h-5v2h5v-2ZM191 34h-5v1h5v-1ZM172 23h4v1h-4v-1ZM172 24h4v1h-4v-1ZM172 26h4v1h-4v-1ZM172 27h4v2h-4v-2ZM172 29h4v2h-4v-2ZM172 31h4v2h-4v-2ZM172 34h4v1h-4v-1ZM186 21h-4v1h4v-1ZM186 22h-4v1h4v-1ZM186 23h-4v1h4v-1ZM186 25h-4v1h4v-1ZM186 27h-4v2h4v-2ZM186 29h-4v2h4v-2ZM186 31h-4v2h4v-2ZM186 34h-4v1h4v-1ZM181 19h-4 4ZM181 20h-4v1h4v-1ZM181 21h-4v1h4v-1ZM181 23h-4v1h4v-1ZM181 25h-4v1h4v-1ZM181 27h-4v2h4v-2ZM181 29h-4v2h4v-2ZM181 31h-4v2h4v-2ZM181 34h-4v1h4v-1ZM191 17h4-4ZM191 18h4-4ZM191 19h4v1h-4v-1ZM191 21h4v1h-4v-1ZM191 23h4v1h-4v-1ZM191 25h4v1h-4v-1ZM191 27h4v2h-4v-2ZM191 29h4v2h-4v-2ZM191 31h4v2h-4v-2ZM191 34h4v1h-4v-1ZM200 21h-4v1h4v-1ZM200 22h-4v1h4v-1ZM200 23h-4v1h4v-1ZM200 25h-4v1h4v-1ZM200 27h-4v2h4v-2ZM200 29h-4v2h4v-2ZM200 31h-4v2h4v-2ZM200 34h-4v1h4v-1ZM205 19h-4 4ZM205 20h-4v1h4v-1ZM205 21h-4v1h4v-1ZM205 23h-4v1h4v-1ZM205 25h-4v1h4v-1ZM205 27h-4v2h4v-2ZM205 29h-4v2h4v-2ZM205 31h-4v2h4v-2ZM205 34h-4v1h4v-1ZM220 12h5v1h-5v-1ZM220 13h5v1h-5v-1ZM220 15h5v1h-5v-1ZM220 16h5v1h-5v-1ZM220 18h5v2h-5v-2ZM220 20h5v2h-5v-2ZM220 23h5v1h-5v-1ZM220 25h5v1h-5v-1ZM220 27h5v2h-5v-2ZM220 29h5v2h-5v-2ZM220 31h5v2h-5v-2ZM220 34h5v1h-5v-1ZM239 23h-4v1h4v-1ZM239 24h-4v1h4v-1ZM239 26h-4v1h4v-1ZM239 27h-4v2h4v-2ZM239 29h-4v2h4v-2ZM239 31h-4v2h4v-2ZM239 34h-4v1h4v-1ZM225 21h4v1h-4v-1ZM225 22h4v1h-4v-1ZM225 23h4v1h-4v-1ZM225 25h4v1h-4v-1ZM225 27h4v2h-4v-2ZM225 29h4v2h-4v-2ZM225 31h4v2h-4v-2ZM225 34h4v1h-4v-1ZM230 19h4-4ZM230 20h4v1h-4v-1ZM230 21h4v1h-4v-1ZM230 23h4v1h-4v-1ZM230 25h4v1h-4v-1ZM230 27h4v2h-4v-2ZM230 29h4v2h-4v-2ZM230 31h4v2h-4v-2ZM230 34h4v1h-4v-1ZM220 17h-4 4ZM220 18h-4 4ZM220 19h-4v1h4v-1ZM220 21h-4v1h4v-1ZM220 23h-4v1h4v-1ZM220 25h-4v1h4v-1ZM220 27h-4v2h4v-2ZM220 29h-4v2h4v-2ZM220 31h-4v2h4v-2ZM220 34h-4v1h4v-1ZM211 21h4v1h-4v-1ZM211 22h4v1h-4v-1ZM211 23h4v1h-4v-1ZM211 25h4v1h-4v-1ZM211 27h4v2h-4v-2ZM211 29h4v2h-4v-2ZM211 31h4v2h-4v-2ZM211 34h4v1h-4v-1ZM206 19h4-4ZM206 20h4v1h-4v-1ZM206 21h4v1h-4v-1ZM206 23h4v1h-4v-1ZM206 25h4v1h-4v-1ZM206 27h4v2h-4v-2ZM206 29h4v2h-4v-2ZM206 31h4v2h-4v-2ZM206 34h4v1h-4v-1ZM254 12h5v1h-5v-1ZM254 13h5v1h-5v-1ZM254 15h5v1h-5v-1ZM254 16h5v1h-5v-1ZM254 18h5v2h-5v-2ZM254 20h5v2h-5v-2ZM254 23h5v1h-5v-1ZM254 25h5v1h-5v-1ZM254 27h5v2h-5v-2ZM254 29h5v2h-5v-2ZM254 31h5v2h-5v-2ZM254 34h5v1h-5v-1ZM273 23h-4v1h4v-1ZM273 24h-4v1h4v-1ZM273 26h-4v1h4v-1ZM273 27h-4v2h4v-2ZM273 29h-4v2h4v-2ZM273 31h-4v2h4v-2ZM273 34h-4v1h4v-1ZM259 21h4v1h-4v-1ZM259 22h4v1h-4v-1ZM259 23h4v1h-4v-1ZM259 25h4v1h-4v-1ZM259 27h4v2h-4v-2ZM259 29h4v2h-4v-2ZM259 31h4v2h-4v-2ZM259 34h4v1h-4v-1ZM264 19h4-4ZM264 20h4v1h-4v-1ZM264 21h4v1h-4v-1ZM264 23h4v1h-4v-1ZM264 25h4v1h-4v-1ZM264 27h4v2h-4v-2ZM264 29h4v2h-4v-2ZM264 31h4v2h-4v-2ZM264 34h4v1h-4v-1ZM254 17h-4 4ZM254 18h-4 4ZM254 19h-4v1h4v-1ZM254 21h-4v1h4v-1ZM254 23h-4v1h4v-1ZM254 25h-4v1h4v-1ZM254 27h-4v2h4v-2ZM254 29h-4v2h4v-2ZM254 31h-4v2h4v-2ZM254 34h-4v1h4v-1ZM245 21h4v1h-4v-1ZM245 22h4v1h-4v-1ZM245 23h4v1h-4v-1ZM245 25h4v1h-4v-1ZM245 27h4v2h-4v-2ZM245 29h4v2h-4v-2ZM245 31h4v2h-4v-2ZM245 34h4v1h-4v-1ZM240 19h4-4ZM240 20h4v1h-4v-1ZM240 21h4v1h-4v-1ZM240 23h4v1h-4v-1ZM240 25h4v1h-4v-1ZM240 27h4v2h-4v-2ZM240 29h4v2h-4v-2ZM240 31h4v2h-4v-2ZM240 34h4v1h-4v-1ZM288 12h5v1h-5v-1ZM288 13h5v1h-5v-1ZM288 15h5v1h-5v-1ZM288 16h5v1h-5v-1ZM288 18h5v2h-5v-2ZM288 20h5v2h-5v-2ZM288 23h5v1h-5v-1ZM288 25h5v1h-5v-1ZM288 27h5v2h-5v-2ZM288 29h5v2h-5v-2ZM288 31h5v2h-5v-2ZM288 34h5v1h-5v-1ZM307 23h-4v1h4v-1ZM307 24h-4v1h4v-1ZM307 26h-4v1h4v-1ZM307 27h-4v2h4v-2ZM307 29h-4v2h4v-2ZM307 31h-4v2h4v-2ZM307 34h-4v1h4v-1ZM293 21h4v1h-4v-1ZM293 22h4v1h-4v-1ZM293 23h4v1h-4v-1ZM293 25h4v1h-4v-1ZM293 27h4v2h-4v-2ZM293 29h4v2h-4v-2ZM293 31h4v2h-4v-2ZM293 34h4v1h-4v-1ZM298 19h4-4ZM298 20h4v1h-4v-1ZM298 21h4v1h-4v-1ZM298 23h4v1h-4v-1ZM298 25h4v1h-4v-1ZM298 27h4v2h-4v-2ZM298 29h4v2h-4v-2ZM298 31h4v2h-4v-2ZM298 34h4v1h-4v-1ZM288 17h-4 4ZM288 18h-4 4ZM288 19h-4v1h4v-1ZM288 21h-4v1h4v-1ZM288 23h-4v1h4v-1ZM288 25h-4v1h4v-1ZM288 27h-4v2h4v-2ZM288 29h-4v2h4v-2ZM288 31h-4v2h4v-2ZM288 34h-4v1h4v-1ZM279 21h4v1h-4v-1ZM279 22h4v1h-4v-1ZM279 23h4v1h-4v-1ZM279 25h4v1h-4v-1ZM279 27h4v2h-4v-2ZM279 29h4v2h-4v-2ZM279 31h4v2h-4v-2ZM279 34h4v1h-4v-1ZM274 19h4-4ZM274 20h4v1h-4v-1ZM274 21h4v1h-4v-1ZM274 23h4v1h-4v-1ZM274 25h4v1h-4v-1ZM274 27h4v2h-4v-2ZM274 29h4v2h-4v-2ZM274 31h4v2h-4v-2ZM274 34h4v1h-4v-1ZM327 12h-5v1h5v-1ZM327 13h-5v1h5v-1ZM327 15h-5v1h5v-1ZM327 16h-5v1h5v-1ZM327 18h-5v2h5v-2ZM327 20h-5v2h5v-2ZM327 23h-5v1h5v-1ZM327 25h-5v1h5v-1ZM327 27h-5v2h5v-2ZM327 29h-5v2h5v-2ZM327 31h-5v2h5v-2ZM327 34h-5v1h5v-1ZM308 23h4v1h-4v-1ZM308 24h4v1h-4v-1ZM308 26h4v1h-4v-1ZM308 27h4v2h-4v-2ZM308 29h4v2h-4v-2ZM308 31h4v2h-4v-2ZM308 34h4v1h-4v-1ZM322 21h-4v1h4v-1ZM322 22h-4v1h4v-1ZM322 23h-4v1h4v-1ZM322 25h-4v1h4v-1ZM322 27h-4v2h4v-2ZM322 29h-4v2h4v-2ZM322 31h-4v2h4v-2ZM322 34h-4v1h4v-1ZM317 19h-4 4ZM317 20h-4v1h4v-1ZM317 21h-4v1h4v-1ZM317 23h-4v1h4v-1ZM317 25h-4v1h4v-1ZM317 27h-4v2h4v-2ZM317 29h-4v2h4v-2ZM317 31h-4v2h4v-2ZM317 34h-4v1h4v-1ZM327 17h4-4ZM327 18h4-4ZM327 19h4v1h-4v-1ZM327 21h4v1h-4v-1ZM327 23h4v1h-4v-1ZM327 25h4v1h-4v-1ZM327 27h4v2h-4v-2ZM327 29h4v2h-4v-2ZM327 31h4v2h-4v-2ZM327 34h4v1h-4v-1ZM336 21h-4v1h4v-1ZM336 22h-4v1h4v-1ZM336 23h-4v1h4v-1ZM336 25h-4v1h4v-1ZM336 27h-4v2h4v-2ZM336 29h-4v2h4v-2ZM336 31h-4v2h4v-2ZM336 34h-4v1h4v-1ZM341 19h-4 4ZM341 20h-4v1h4v-1ZM341 21h-4v1h4v-1ZM341 23h-4v1h4v-1ZM341 25h-4v1h4v-1ZM341 27h-4v2h4v-2ZM341 29h-4v2h4v-2ZM341 31h-4v2h4v-2ZM341 34h-4v1h4v-1ZM361 12h-5v1h5v-1ZM361 13h-5v1h5v-1ZM361 15h-5v1h5v-1ZM361 16h-5v1h5v-1ZM361 18h-5v2h5v-2ZM361 20h-5v2h5v-2ZM361 23h-5v1h5v-1ZM361 25h-5v1h5v-1ZM361 27h-5v2h5v-2ZM361 29h-5v2h5v-2ZM361 31h-5v2h5v-2ZM361 34h-5v1h5v-1ZM342 23h4v1h-4v-1ZM342 24h4v1h-4v-1ZM342 26h4v1h-4v-1ZM342 27h4v2h-4v-2ZM342 29h4v2h-4v-2ZM342 31h4v2h-4v-2ZM342 34h4v1h-4v-1ZM356 21h-4v1h4v-1ZM356 22h-4v1h4v-1ZM356 23h-4v1h4v-1ZM356 25h-4v1h4v-1ZM356 27h-4v2h4v-2ZM356 29h-4v2h4v-2ZM356 31h-4v2h4v-2ZM356 34h-4v1h4v-1ZM351 19h-4 4ZM351 20h-4v1h4v-1ZM351 21h-4v1h4v-1ZM351 23h-4v1h4v-1ZM351 25h-4v1h4v-1ZM351 27h-4v2h4v-2ZM351 29h-4v2h4v-2ZM351 31h-4v2h4v-2ZM351 34h-4v1h4v-1ZM361 17h4-4ZM361 18h4-4ZM361 19h4v1h-4v-1ZM361 21h4v1h-4v-1ZM361 23h4v1h-4v-1ZM361 25h4v1h-4v-1ZM361 27h4v2h-4v-2ZM361 29h4v2h-4v-2ZM361 31h4v2h-4v-2ZM361 34h4v1h-4v-1ZM370 21h-4v1h4v-1ZM370 22h-4v1h4v-1ZM370 23h-4v1h4v-1ZM370 25h-4v1h4v-1ZM370 27h-4v2h4v-2ZM370 29h-4v2h4v-2ZM370 31h-4v2h4v-2ZM370 34h-4v1h4v-1ZM375 19h-4 4ZM375 20h-4v1h4v-1ZM375 21h-4v1h4v-1ZM375 23h-4v1h4v-1ZM375 25h-4v1h4v-1ZM375 27h-4v2h4v-2ZM375 29h-4v2h4v-2ZM375 31h-4v2h4v-2ZM375 34h-4v1h4v-1Z" fill="#999"/>
</svg>
